<svg height="512pt" viewBox="-138 0 512 512" width="512pt" xmlns="http://www.w3.org/2000/svg"><path d="m235.835938 326.414062v175.285157c0 5.683593-4.609376 10.292969-10.292969 10.292969h-194.472657c-5.695312 0-10.300781-4.609376-10.300781-10.292969v-175.285157c0-4.882812.546875-9.664062 1.582031-14.242187 6.476563-28.890625 32.289063-50.480469 63.140626-50.480469h85.613281c35.757812 0 64.730469 28.980469 64.730469 64.722656zm0 0" fill="#d9efec"/><path d="m235.839844 326.421875v175.277344c0 5.6875-4.613282 10.300781-10.304688 10.300781h-23.046875v-185.578125c0-35.75-28.980469-64.734375-64.738281-64.734375h33.355469c35.75 0 64.734375 28.984375 64.734375 64.734375zm0 0" fill="#c1dbd6"/><path d="m177.882812 393.523438h57.957032v35.621093h-57.957032zm0 0" fill="#38aaff"/><path d="m202.488281 393.523438h33.351563v35.621093h-33.351563zm0 0" fill="#2081f6"/><path d="m66.265625 375.003906v136.988282h-15.453125v-136.988282c0-4.261718 3.460938-7.722656 7.726562-7.722656 4.265626 0 7.726563 3.460938 7.726563 7.722656zm0 0" fill="#c1dbd6"/><path d="m178.066406 375.003906v136.988282h-15.449218v-136.988282c0-4.261718 3.449218-7.722656 7.722656-7.722656 4.265625 0 7.726562 3.460938 7.726562 7.722656zm0 0" fill="#c1dbd6"/><g fill="#ffb38c"><path d="m115.765625 299.117188c-10.929687 0-19.789063-8.859376-19.789063-19.789063v-55.070313h39.578126v55.070313c0 10.929687-8.859376 19.789063-19.789063 19.789063zm0 0"/><path d="m236.089844 142.277344c0 17.269531-14 31.265625-31.265625 31.265625-17.269531 0-31.265625-13.996094-31.265625-31.265625 0-17.265625 13.996094-31.261719 31.265625-31.261719 17.265625 0 31.265625 13.996094 31.265625 31.261719zm0 0"/><path d="m62.53125 142.277344c0 17.269531-14 31.265625-31.265625 31.265625-17.269531 0-31.265625-13.996094-31.265625-31.265625 0-17.265625 13.996094-31.261719 31.265625-31.261719 17.265625 0 31.265625 13.996094 31.265625 31.261719zm0 0"/></g><path d="m28.640625 88.128906v66.613282c0 46.15625 37.417969 83.574218 83.574219 83.574218s83.574218-37.417968 83.574218-83.574218v-66.613282zm0 0" fill="#fecaa8"/><path d="m88.992188 183.398438c-6.070313 0-10.988282-4.921876-10.988282-10.992188v-19.136719c0-6.070312 4.921875-10.988281 10.988282-10.988281 6.070312 0 10.992187 4.917969 10.992187 10.988281v19.136719c0 6.070312-4.921875 10.992188-10.992187 10.992188zm0 0" fill="#f55"/><path d="m129.542969 146.40625c-.019531 0-.042969 0-.0625 0l-.125-.003906c-4.265625-.035156-7.699219-3.519532-7.664063-7.789063.035156-4.242187 3.488282-7.664062 7.726563-7.664062h.0625l.125.003906c4.265625.035156 7.699219 3.519531 7.664062 7.789063-.035156 4.246093-3.488281 7.664062-7.726562 7.664062zm0 0" fill="#4c78a0"/><path d="m55.355469 146.40625c-.019531 0-.039063 0-.0625 0l-.125-.003906c-4.265625-.03125-7.699219-3.519532-7.664063-7.789063.035156-4.242187 3.488282-7.664062 7.726563-7.664062h.0625l.125.003906c4.265625.03125 7.699219 3.519531 7.664062 7.789063-.035156 4.246093-3.488281 7.664062-7.726562 7.664062zm0 0" fill="#4c78a0"/><path d="m108.195312 219.582031c-4.90625 0-9.914062-.914062-14.894531-2.753906-4.003906-1.480469-6.050781-5.925781-4.570312-9.925781 1.476562-4.003906 5.921875-6.050782 9.925781-4.570313 8.410156 3.109375 16.183594 2.25 23.097656-2.546875 3.507813-2.433594 8.320313-1.558594 10.753906 1.949219 2.429688 3.503906 1.558594 8.320313-1.949218 10.75-6.789063 4.707031-14.4375 7.097656-22.363282 7.097656zm0 0" fill="#fe825e"/><path d="m28.640625 67.714844v28.027344h95.609375c8.566406 0 16.402344 4.949218 19.972656 12.738281 8.167969 17.820312 26.15625 30.199219 47.042969 30.199219h4.523437v-54.539063c0-23.632813-19.15625-42.792969-42.792968-42.792969h-97.988282c-14.5625 0-26.367187 11.804688-26.367187 26.367188zm0 0" fill="#4c78a0"/><path d="m126.023438 35.398438c0 19.546874-15.847657 35.394531-35.394532 35.394531-19.550781 0-35.398437-15.847657-35.398437-35.394531 0-19.550782 15.847656-35.398438 35.398437-35.398438 19.546875 0 35.394532 15.847656 35.394532 35.398438zm0 0" fill="#60daff"/><path d="m126.027344 35.398438c0 19.542968-15.84375 35.398437-35.398438 35.398437-4.3125 0-8.449218-.773437-12.273437-2.191406 13.503906-4.988281 23.128906-17.976563 23.128906-33.207031 0-15.238282-9.625-28.226563-23.128906-33.203126 3.824219-1.417968 7.960937-2.19140575 12.273437-2.19140575 19.550782 0 35.398438 15.84374975 35.398438 35.39453175zm0 0" fill="#38aaff"/><path d="m171.585938 255.945312c-4.265626 0-7.726563 3.460938-7.726563 7.726563v31.898437c0 23.070313-18.769531 41.84375-41.84375 41.84375s-41.84375-18.773437-41.84375-41.84375v-29.914062c0-4.265625-3.457031-7.726562-7.726563-7.726562-4.265624 0-7.726562 3.460937-7.726562 7.726562v29.914062c0 31.59375 25.703125 57.296876 57.296875 57.296876 4.886719 0 9.632813-.617188 14.164063-1.773438v84.886719c0 6.226562-5.066407 11.292969-11.292969 11.292969-6.226563 0-11.292969-5.0625-11.292969-11.292969v-48.78125c0-4.265625-3.457031-7.722657-7.726562-7.722657-4.265626 0-7.722657 3.457032-7.722657 7.722657v48.78125c0 14.746093 11.996094 26.746093 26.742188 26.746093 14.75 0 26.746093-12 26.746093-26.746093v-91.378907c16.578126-10.050781 27.679688-28.269531 27.679688-49.03125v-31.898437c0-4.265625-3.460938-7.726563-7.726562-7.726563zm0 0" fill="#60daff"/><path d="m124.105469 387.203125c0 10.074219-8.164063 18.238281-18.238281 18.238281-10.074219 0-18.238282-8.164062-18.238282-18.238281s8.164063-18.238281 18.238282-18.238281c10.074218 0 18.238281 8.164062 18.238281 18.238281zm0 0" fill="#4c78a0"/><path d="m112.507812 326.792969c-.023437 0-.042968 0-.066406 0h-.125c-4.265625-.035157-7.695312-3.523438-7.660156-7.789063.03125-4.246094 3.484375-7.664062 7.722656-7.664062h.0625.125c4.269532.035156 7.699219 3.523437 7.664063 7.789062-.035157 4.246094-3.488281 7.664063-7.722657 7.664063zm0 0" fill="#38aaff"/></svg>