<svg height="512pt" viewBox="-2 0 512 512.00002" width="512pt" xmlns="http://www.w3.org/2000/svg"><path d="m357.863281 512h122.820313c5.691406 0 10.304687-4.613281 10.304687-10.300781v-163.589844h-133.125zm0 0" fill="#75a4c8"/><path d="m417.933594 349.253906h41.402344v162.746094h-41.402344zm0 0" fill="#60daff"/><path d="m459.335938 361.335938v45.492187l-41.402344 41.414063v-45.503907zm0 0" fill="#a0ecff"/><path d="m459.335938 420.964844v27.875l-41.402344 41.414062v-27.886718zm0 0" fill="#a0ecff"/><path d="m357.863281 349.25h140.308594c5.6875 0 10.300781-4.613281 10.300781-10.304688v-24.304687c0-5.691406-4.613281-10.300781-10.300781-10.300781h-140.308594zm0 0" fill="#f55"/><path d="m150.605469 512h-122.820313c-5.6875 0-10.300781-4.613281-10.300781-10.300781v-163.589844h133.121094zm0 0" fill="#75a4c8"/><path d="m49.136719 349.253906h41.402343v162.746094h-41.402343zm0 0" fill="#60daff"/><path d="m90.539062 422.898438v32.0625l-41.402343 41.390624v-32.046874zm0 0" fill="#a0ecff"/><path d="m90.539062 387.710938v22.601562l-41.402343 41.390625v-22.582031zm0 0" fill="#a0ecff"/><path d="m150.605469 349.25h-140.304688c-5.6875 0-10.300781-4.613281-10.300781-10.304688v-24.304687c0-5.691406 4.613281-10.300781 10.300781-10.300781h140.304688zm0 0" fill="#f55"/><path d="m380.902344 512h-253.332032v-441.539062c0-5.910157 4.789063-10.703126 10.699219-10.703126h231.933594c5.90625 0 10.699219 4.792969 10.699219 10.703126zm0 0" fill="#d9efec"/><path d="m380.898438 70.453125v441.546875h-27.828126v-441.546875c0-5.902344-4.789062-10.691406-10.703124-10.691406h27.835937c5.902344 0 10.695313 4.789062 10.695313 10.691406zm0 0" fill="#c1dbd6"/><path d="m304.222656 512h-99.972656v-116.390625c0-5.6875 4.609375-10.300781 10.300781-10.300781h79.371094c5.6875 0 10.300781 4.613281 10.300781 10.300781zm0 0" fill="#38aaff"/><path d="m304.222656 512h-49.988281v-126.691406h39.6875c5.6875 0 10.300781 4.613281 10.300781 10.300781zm0 0" fill="#2081f6"/><path d="m395.453125 80.492188h-282.433594c-5.691406 0-10.300781-4.609376-10.300781-10.300782v-13.015625c0-5.691406 4.609375-10.304687 10.300781-10.304687h282.433594c5.691406 0 10.300781 4.613281 10.300781 10.304687v13.015625c0 5.6875-4.609375 10.300782-10.300781 10.300782zm0 0" fill="#75a4c8"/><path d="m317.171875 49.359375v27.148437c0 6.089844-4.941406 11.027344-11.039063 11.027344h-27.289062v27.296875c0 6.09375-4.941406 11.035157-11.035156 11.035157h-27.140625c-6.097657 0-11.035157-4.941407-11.035157-11.035157v-27.296875h-27.296874c-6.09375 0-11.035157-4.9375-11.035157-11.027344v-27.148437c0-6.089844 4.941407-11.035156 11.035157-11.035156h27.296874v-27.289063c0-6.09375 4.941407-11.035156 11.035157-11.035156h27.140625c6.097656 0 11.035156 4.941406 11.035156 11.035156v27.289063h27.292969c6.09375 0 11.035156 4.945312 11.035156 11.035156zm0 0" fill="#f55"/><g fill="#60daff"><path d="m199.746094 197.335938h-25.480469c-5.101563 0-9.234375-4.136719-9.234375-9.234376v-25.480468c0-5.097656 4.132812-9.234375 9.234375-9.234375h25.480469c5.097656 0 9.234375 4.136719 9.234375 9.234375v25.480468c0 5.101563-4.132813 9.234376-9.234375 9.234376zm0 0"/><path d="m266.976562 197.335938h-25.480468c-5.101563 0-9.234375-4.136719-9.234375-9.234376v-25.480468c0-5.097656 4.132812-9.234375 9.234375-9.234375h25.480468c5.097657 0 9.234376 4.136719 9.234376 9.234375v25.480468c0 5.101563-4.136719 9.234376-9.234376 9.234376zm0 0"/><path d="m334.203125 197.335938h-25.476563c-5.101562 0-9.234374-4.136719-9.234374-9.234376v-25.480468c0-5.097656 4.132812-9.234375 9.234374-9.234375h25.476563c5.101563 0 9.238281 4.136719 9.238281 9.234375v25.480468c0 5.101563-4.136718 9.234376-9.238281 9.234376zm0 0"/><path d="m199.746094 267.871094h-25.480469c-5.101563 0-9.234375-4.136719-9.234375-9.234375v-25.480469c0-5.101562 4.132812-9.234375 9.234375-9.234375h25.480469c5.097656 0 9.234375 4.132813 9.234375 9.234375v25.480469c0 5.097656-4.132813 9.234375-9.234375 9.234375zm0 0"/><path d="m266.976562 267.871094h-25.480468c-5.101563 0-9.234375-4.136719-9.234375-9.234375v-25.480469c0-5.101562 4.132812-9.234375 9.234375-9.234375h25.480468c5.097657 0 9.234376 4.132813 9.234376 9.234375v25.480469c0 5.097656-4.136719 9.234375-9.234376 9.234375zm0 0"/><path d="m334.203125 267.871094h-25.476563c-5.101562 0-9.234374-4.136719-9.234374-9.234375v-25.480469c0-5.101562 4.132812-9.234375 9.234374-9.234375h25.476563c5.101563 0 9.238281 4.132813 9.238281 9.234375v25.480469c0 5.097656-4.136718 9.234375-9.238281 9.234375zm0 0"/><path d="m199.746094 338.402344h-25.480469c-5.101563 0-9.234375-4.132813-9.234375-9.234375v-25.480469c0-5.097656 4.132812-9.234375 9.234375-9.234375h25.480469c5.097656 0 9.234375 4.136719 9.234375 9.234375v25.480469c0 5.101562-4.132813 9.234375-9.234375 9.234375zm0 0"/><path d="m266.976562 338.402344h-25.480468c-5.101563 0-9.234375-4.132813-9.234375-9.234375v-25.480469c0-5.097656 4.132812-9.234375 9.234375-9.234375h25.480468c5.097657 0 9.234376 4.136719 9.234376 9.234375v25.480469c0 5.101562-4.136719 9.234375-9.234376 9.234375zm0 0"/><path d="m334.203125 338.402344h-25.476563c-5.101562 0-9.234374-4.132813-9.234374-9.234375v-25.480469c0-5.097656 4.132812-9.234375 9.234374-9.234375h25.476563c5.101563 0 9.238281 4.136719 9.238281 9.234375v25.480469c0 5.101562-4.136718 9.234375-9.238281 9.234375zm0 0"/></g></svg>