<svg height="512pt" viewBox="-133 0 512 512" width="512pt" xmlns="http://www.w3.org/2000/svg"><path d="m245.039062 319.179688v182.515624c0 5.6875-4.613281 10.300782-10.300781 10.300782h-202.855469c-5.691406 0-10.304687-4.613282-10.304687-10.300782v-182.515624c0-5.082032.566406-10.042969 1.644531-14.800782 6.730469-30.019531 33.546875-52.449218 65.605469-52.449218h88.949219c37.152344 0 67.261718 30.109374 67.261718 67.25zm0 0" fill="#38aaff"/><path d="m245.035156 319.183594v182.515625c0 5.6875-4.609375 10.300781-10.300781 10.300781h-24.347656v-192.816406c0-37.144532-30.109375-67.257813-67.265625-67.257813h34.660156c37.144531 0 67.253906 30.113281 67.253906 67.257813zm0 0" fill="#2081f6"/><path d="m184.820312 386.6875v125.3125h49.914063c5.691406 0 10.300781-4.613281 10.300781-10.300781v-115.011719zm0 0" fill="#e78e6f"/><path d="m210.386719 386.6875v125.3125h24.347656c5.691406 0 10.300781-4.613281 10.300781-10.300781v-115.011719zm0 0" fill="#c87c5b"/><path d="m21.578125 386.6875v115.011719c0 5.6875 4.613281 10.300781 10.304687 10.300781h30.957032v-125.3125zm0 0" fill="#e78e6f"/><path d="m62.839844 333.4375v57.300781h-41.261719v-71.558593c0-5.082032.566406-10.042969 1.644531-14.800782h10.558594c16.054688 0 29.058594 13.003906 29.058594 29.058594zm0 0" fill="#f55"/><path d="m244.71875 324.050781v66.761719h-59.894531v-66.761719c0-13.511719 8.941406-24.925781 21.234375-28.660156 2.761718-.832031 5.679687-1.289063 8.714844-1.289063 8.269531 0 15.753906 3.351563 21.167968 8.765626 5.425782 5.425781 8.777344 12.914062 8.777344 21.183593zm0 0" fill="#f55"/><path d="m244.71875 324.050781v66.761719h-34.328125v-71.628906c0-8.375-1.527344-16.398438-4.332031-23.789063 2.761718-.835937 5.679687-1.289062 8.714844-1.289062 8.269531 0 15.753906 3.347656 21.167968 8.761719 5.425782 5.425781 8.777344 12.914062 8.777344 21.183593zm0 0" fill="#f72b2b"/><g fill="#c87c5b"><path d="m120.28125 290.8125c-11.355469 0-20.558594-9.203125-20.558594-20.558594v-57.21875h41.121094v57.21875c0 11.355469-9.207031 20.558594-20.5625 20.558594zm0 0"/><path d="m245.296875 127.859375c0 17.941406-14.542969 32.484375-32.484375 32.484375s-32.484375-14.542969-32.484375-32.484375 14.542969-32.484375 32.484375-32.484375 32.484375 14.542969 32.484375 32.484375zm0 0"/><path d="m64.96875 127.859375c0 17.941406-14.542969 32.484375-32.484375 32.484375s-32.484375-14.542969-32.484375-32.484375 14.542969-32.484375 32.484375-32.484375 32.484375 14.542969 32.484375 32.484375zm0 0"/></g><path d="m203.429688 140.808594c0 47.957031-38.878907 86.835937-86.835938 86.835937s-86.835938-38.878906-86.835938-86.835937v-67.746094h173.667969v67.746094zm0 0" fill="#e78e6f"/><path d="m92.464844 170.582031c-6.304688 0-11.417969-5.109375-11.417969-11.417969v-19.886718c0-6.304688 5.109375-11.417969 11.417969-11.417969 6.304687 0 11.417968 5.113281 11.417968 11.417969v19.886718c0 6.304688-5.113281 11.417969-11.417968 11.417969zm0 0" fill="#f55"/><path d="m134.597656 131.847656c-.019531 0-.039062 0-.0625 0l-.128906-.003906c-4.265625-.03125-7.699219-3.519531-7.664062-7.785156.03125-4.246094 3.484374-7.667969 7.722656-7.667969h.0625l.128906.003906c4.269531.03125 7.699219 3.515625 7.667969 7.785157-.035157 4.246093-3.488281 7.667968-7.726563 7.667968zm0 0" fill="#8c482b"/><path d="m57.515625 131.847656c-.019531 0-.039063 0-.0625 0l-.128906-.003906c-4.265625-.03125-7.695313-3.519531-7.664063-7.785156.03125-4.246094 3.484375-7.667969 7.726563-7.667969h.058593l.128907.003906c4.269531.03125 7.699219 3.519531 7.667969 7.785157-.035157 4.246093-3.484376 7.667968-7.726563 7.667968zm0 0" fill="#8c482b"/><path d="m112.414062 207.875c-5.058593 0-10.230468-.941406-15.371093-2.84375-4.003907-1.476562-6.046875-5.921875-4.566407-9.925781 1.476563-4 5.921876-6.046875 9.925782-4.566407 6.074218 2.242188 15.214844 3.601563 24.273437-2.679687 3.507813-2.433594 8.324219-1.558594 10.753907 1.945313 2.429687 3.507812 1.558593 8.320312-1.949219 10.753906-7.003907 4.851562-14.886719 7.316406-23.066407 7.316406zm0 0" fill="#c87c5b"/><path d="m203.425781 42.390625v57.640625h-125.003906c-40.476563 0-73.285156-32.8125-73.285156-73.296875v-16.421875c0-5.699219 4.613281-10.3125 10.3125-10.3125h145.582031c23.417969 0 42.394531 18.976562 42.394531 42.390625zm0 0" fill="#a46243"/><path d="m203.421875 42.394531v57.632813h-24.976563v-57.632813c0-23.410156-18.972656-42.394531-42.390624-42.394531h24.984374c23.410157 0 42.382813 18.984375 42.382813 42.394531zm0 0" fill="#8c482b"/><path d="m163.816406 75.964844v24.066406h-15.453125v-24.066406c0-4.265625 3.460938-7.726563 7.726563-7.726563 4.273437 0 7.726562 3.460938 7.726562 7.726563zm0 0" fill="#8c482b"/><path d="m138.800781 89.027344v11.003906h-15.453125v-11.003906c0-4.265625 3.464844-7.726563 7.726563-7.726563 4.265625 0 7.726562 3.460938 7.726562 7.726563zm0 0" fill="#8c482b"/><path d="m158.941406 366.1875v14.898438c0 3.34375-2.710937 6.054687-6.058594 6.054687h-14.976562v14.976563c0 3.347656-2.710938 6.058593-6.054688 6.058593h-14.894531c-3.34375 0-6.054687-2.710937-6.054687-6.058593v-14.976563h-14.980469c-3.34375 0-6.054687-2.710937-6.054687-6.054687v-14.898438c0-3.339844 2.710937-6.054688 6.054687-6.054688h14.980469v-14.976562c0-3.34375 2.710937-6.054688 6.054687-6.054688h14.894531c3.34375 0 6.054688 2.710938 6.054688 6.054688v14.976562h14.976562c3.347657 0 6.058594 2.714844 6.058594 6.054688zm0 0" fill="#f55"/></svg>