<svg height="512pt" viewBox="-138 0 512 512.001" width="512pt" xmlns="http://www.w3.org/2000/svg"><path d="m217.09375 159.113281 10.261719 23.367188c12.316406 28.046875 6.160156 60.777343-15.496094 82.4375-13.941406 13.9375-32.84375 21.769531-52.558594 21.769531h-77.628906c-15.113281 0-29.609375-6.003906-40.296875-16.691406-16.839844-16.839844-21.429688-42.382813-11.507812-64.035156l21.46875-46.84375h165.757812zm0 0" fill="#a46243"/><path d="m211.855469 264.921875c-6.976563 6.964844-15.175781 12.414063-24.117188 16.109375-8.921875 3.699219-18.585937 5.65625-28.433593 5.65625h-27.113282c9.859375 0 19.511719-1.957031 28.441406-5.65625 8.933594-3.695312 17.152344-9.144531 24.117188-16.109375 21.65625-21.664063 27.816406-54.394531 15.496094-82.445313l-10.261719-23.367187h27.113281l10.261719 23.367187c12.308594 28.050782 6.160156 60.78125-15.503906 82.445313zm0 0" fill="#8c482b"/><path d="m187.457031 73.8125c-.152343 0-.304687.007812-.460937.011719v70.914062h34.847656c5.894531-7.460937 9.417969-16.875 9.417969-27.121093 0-24.191407-19.609375-43.804688-43.804688-43.804688zm0 0" fill="#8c482b"/><path d="m235.695312 329.472656v172.226563c0 5.6875-4.605468 10.300781-10.304687 10.300781h-190.921875c-5.6875 0-10.300781-4.613281-10.300781-10.300781v-172.226563c0-4.8125.535156-9.507812 1.554687-14.007812 6.375-28.414063 31.761719-49.65625 62.097656-49.65625h84.207032c35.171875 0 63.667968 28.503906 63.667968 63.664062zm0 0" fill="#d9efec"/><path d="m235.695312 329.476562v172.222657c0 5.6875-4.613281 10.300781-10.300781 10.300781h-22.496093v-182.523438c0-35.164062-28.507813-63.667968-63.675782-63.667968h32.808594c35.160156 0 63.664062 28.503906 63.664062 63.667968zm0 0" fill="#c1dbd6"/><path d="m85.300781 265.8125-6.703125 46.441406c-.894531 6.210938 3.921875 11.773438 10.195313 11.773438h67.710937c6.304688 0 11.128906-5.605469 10.1875-11.839844l-7-46.375zm0 0" fill="#38aaff"/><path d="m70.945312 365.921875v146.078125h-15.453124v-146.078125c0-4.277344 3.460937-7.726563 7.726562-7.726563 4.277344 0 7.726562 3.449219 7.726562 7.726563zm0 0" fill="#c1dbd6"/><path d="m191.589844 364.550781v147.449219h-15.453125v-147.449219c0-4.265625 3.460937-7.726562 7.726562-7.726562s7.726563 3.460937 7.726563 7.726562zm0 0" fill="#c1dbd6"/><path d="m121.511719 302.621094c-10.75 0-19.464844-8.714844-19.464844-19.464844v-54.160156h38.925781v54.160156c0 10.75-8.710937 19.464844-19.460937 19.464844zm0 0" fill="#ffb38c"/><path d="m235.949219 148.367188c0 16.984374-13.769531 30.75-30.75 30.75-16.984375 0-30.753907-13.765626-30.753907-30.75 0-16.984376 13.769532-30.75 30.753907-30.75 16.980469 0 30.75 13.765624 30.75 30.75zm0 0" fill="#ffb38c"/><path d="m61.503906 148.367188c0 16.984374-13.769531 30.75-30.753906 30.75-16.980469 0-30.75-13.765626-30.75-30.75 0-16.984376 13.769531-30.75 30.75-30.75 16.984375 0 30.753906 13.765624 30.753906 30.75zm0 0" fill="#ffb38c"/><path d="m196.316406 160.625c0 45.394531-36.804687 82.199219-82.199218 82.199219-45.398438 0-82.199219-36.804688-82.199219-82.199219v-64.132812h164.398437zm0 0" fill="#fecaa8"/><path d="m32.503906 98.378906s9.527344 24.292969 59.058594 27.867188c6.789062.492187 12.582031-4.859375 12.582031-11.667969v-16.199219zm0 0" fill="#a46243"/><path d="m105.460938 98.378906s9.527343 24.292969 59.058593 27.867188c6.789063.492187 12.582031-4.859375 12.582031-11.667969v-16.199219zm0 0" fill="#a46243"/><path d="m91.273438 188.808594c-5.96875 0-10.808594-4.839844-10.808594-10.808594v-18.824219c0-5.96875 4.839844-10.808593 10.808594-10.808593 5.972656 0 10.808593 4.839843 10.808593 10.808593v18.824219c0 5.96875-4.839843 10.808594-10.808593 10.808594zm0 0" fill="#f55"/><path d="m131.15625 152.550781c-.019531 0-.039062 0-.0625 0h-.125c-4.265625-.035156-7.695312-3.523437-7.660156-7.789062.035156-4.246094 3.488281-7.664063 7.722656-7.664063h.066406.121094c4.269531.035156 7.699219 3.523438 7.664062 7.792969-.035156 4.246094-3.488281 7.660156-7.726562 7.660156zm0 0" fill="#8c482b"/><path d="m58.191406 152.550781c-.023437 0-.042968 0-.066406 0h-.121094c-4.265625-.035156-7.699218-3.523437-7.660156-7.789062.035156-4.246094 3.484375-7.664063 7.722656-7.664063h.066406.121094c4.265625.035156 7.699219 3.523438 7.660156 7.792969-.03125 4.246094-3.484374 7.660156-7.722656 7.660156zm0 0" fill="#8c482b"/><path d="m110.160156 224.523438c-4.835937 0-9.777344-.898438-14.695312-2.714844-4.003906-1.480469-6.046875-5.921875-4.570313-9.925782 1.480469-4 5.921875-6.046874 9.925781-4.570312 8.230469 3.039062 15.835938 2.203125 22.601563-2.488281 3.507813-2.433594 8.320313-1.558594 10.753906 1.945312 2.429688 3.507813 1.558594 8.320313-1.949219 10.753907-6.695312 4.644531-14.242187 7-22.066406 7zm0 0" fill="#fe825e"/><path d="m199.039062 97.742188 15.179688-64.0625c1-4.226563-.902344-8.597657-4.679688-10.742188-13.136718-7.445312-46.363281-22.9375-95.421874-22.9375-51.324219 0-83.128907 15.355469-95.582032 22.839844-3.640625 2.1875-5.429687 6.476562-4.453125 10.605468l15.234375 64.296876c.65625 2.789062 3.148438 4.753906 6.011719 4.753906h157.699219c2.863281 0 5.351562-1.96875 6.011718-4.753906zm0 0" fill="#d9efec"/><path d="m214.214844 33.675781-15.171875 64.058594c-.660157 2.789063-3.152344 4.757813-6.015625 4.757813h-22.699219l19.015625-89.007813c8.933594 3.453125 15.722656 6.914063 20.183594 9.449219 3.78125 2.140625 5.695312 6.519531 4.6875 10.742187zm0 0" fill="#c1dbd6"/><path d="m134.3125 45.152344v12.191406c0 2.734375-2.21875 4.953125-4.953125 4.953125h-12.253906v12.253906c0 2.738281-2.21875 4.957031-4.957031 4.957031h-12.183594c-2.738282 0-4.957032-2.21875-4.957032-4.957031v-12.253906h-12.253906c-2.738281 0-4.957031-2.21875-4.957031-4.953125v-12.191406c0-2.734375 2.21875-4.953125 4.957031-4.953125h12.253906v-12.253907c0-2.734374 2.21875-4.953124 4.957032-4.953124h12.183594c2.738281 0 4.957031 2.21875 4.957031 4.953124v12.253907h12.253906c2.734375 0 4.953125 2.222656 4.953125 4.953125zm0 0" fill="#f55"/><path d="m158.5 373.640625h-14.847656c-4.265625 0-7.726563-3.457031-7.726563-7.726563 0-4.265624 3.460938-7.722656 7.726563-7.722656h14.847656c4.269531 0 7.726562 3.457032 7.726562 7.722656 0 4.269532-3.457031 7.726563-7.726562 7.726563zm0 0" fill="#38aaff"/><g fill="#f55"><path d="m98.207031 372.960938c-.023437 0-.042969 0-.066406 0l-.121094-.003907c-4.269531-.035156-7.699219-3.523437-7.664062-7.789062.035156-4.246094 3.488281-7.664063 7.726562-7.664063h.0625l.121094.003906c4.269531.03125 7.699219 3.519532 7.664063 7.789063-.035157 4.242187-3.488282 7.664063-7.722657 7.664063zm0 0"/><path d="m98.207031 409.921875c-.023437 0-.042969 0-.066406 0h-.121094c-4.269531-.035156-7.699219-3.523437-7.664062-7.789063.035156-4.246093 3.488281-7.664062 7.726562-7.664062h.0625.121094c4.269531.035156 7.699219 3.523438 7.664063 7.789062-.035157 4.246094-3.488282 7.664063-7.722657 7.664063zm0 0"/><path d="m98.207031 446.882812c-.023437 0-.042969 0-.066406 0h-.121094c-4.269531-.035156-7.699219-3.523437-7.664062-7.789062.035156-4.246094 3.488281-7.664062 7.726562-7.664062h.0625.121094c4.269531.035156 7.699219 3.523437 7.664063 7.792968-.035157 4.246094-3.488282 7.660156-7.722657 7.660156zm0 0"/><path d="m98.207031 483.847656c-.023437 0-.042969 0-.066406 0h-.121094c-4.269531-.035156-7.699219-3.523437-7.664062-7.792968.035156-4.242188 3.488281-7.660157 7.726562-7.660157h.0625.121094c4.269531.035157 7.699219 3.523438 7.664063 7.789063-.035157 4.246094-3.488282 7.664062-7.722657 7.664062zm0 0"/></g><path d="m154.21875 175.738281c0 5.757813-4.667969 10.425781-10.425781 10.425781-5.757813 0-10.429688-4.667968-10.429688-10.425781 0-5.761719 4.671875-10.429687 10.429688-10.429687 5.757812 0 10.425781 4.667968 10.425781 10.429687zm0 0" fill="#fe825e"/><path d="m66.261719 175.738281c0 5.757813-4.667969 10.425781-10.425781 10.425781-5.761719 0-10.429688-4.667968-10.429688-10.425781 0-5.761719 4.667969-10.429687 10.429688-10.429687 5.757812 0 10.425781 4.667968 10.425781 10.429687zm0 0" fill="#fe825e"/></svg>