<svg height="512pt" viewBox="-114 0 512 512.001" width="512pt" xmlns="http://www.w3.org/2000/svg"><path d="m198.359375 299.320312h-112.460937c-53.703126 0-94.230469-48.734374-84.429688-101.535156l15.632812-84.257812c9.425782-50.789063 53.730469-87.628906 105.386719-87.628906h39.277344c51.65625 0 95.964844 36.84375 105.386719 87.628906l15.636718 84.257812c9.796876 52.800782-30.730468 101.535156-84.429687 101.535156zm0 0" fill="#336686"/><path d="m198.355469 299.324219h-44.347657c53.703126 0 94.230469-48.734375 84.433594-101.535157l-15.640625-84.265624c-9.265625-49.953126-52.277343-86.40625-102.84375-87.589844.84375-.023438 1.691407-.03125 2.535157-.03125h39.269531c51.664062 0 95.960937 36.835937 105.386719 87.621094l15.644531 84.265624c9.796875 52.800782-30.730469 101.535157-84.4375 101.535157zm0 0" fill="#235872"/><path d="m246.601562 323.914062v177.78125c0 5.6875-4.613281 10.300782-10.304687 10.300782h-197.367187c-5.6875 0-10.300782-4.613282-10.300782-10.300782v-177.78125c0-4.957031.550782-9.796874 1.601563-14.4375 6.566406-29.28125 32.722656-51.160156 63.996093-51.160156h86.765626c36.238281 0 65.609374 29.371094 65.609374 65.597656zm0 0" fill="#d9efec"/><path d="m246.597656 323.917969v177.78125c0 5.691406-4.609375 10.300781-10.300781 10.300781h-23.496094v-188.082031c0-36.230469-29.371093-65.605469-65.613281-65.605469h33.808594c36.230468 0 65.601562 29.375 65.601562 65.605469zm0 0" fill="#c1dbd6"/><path d="m187.863281 389.765625v122.234375h48.433594c5.691406 0 10.300781-4.613281 10.300781-10.300781v-111.933594zm0 0" fill="#fecaa8"/><path d="m212.800781 389.765625v122.234375h23.496094c5.691406 0 10.300781-4.613281 10.300781-10.300781v-111.933594zm0 0" fill="#ffb38c"/><path d="m28.628906 389.765625v111.933594c0 5.6875 4.613282 10.300781 10.300782 10.300781h29.949218v-122.234375zm0 0" fill="#fecaa8"/><path d="m68.878906 337.820312v55.898438h-40.25v-69.804688c0-4.957031.554688-9.796874 1.601563-14.4375h10.300781c15.660156 0 28.347656 12.683594 28.347656 28.34375zm0 0" fill="#38aaff"/><path d="m246.289062 328.664062v65.125h-58.421874v-65.125c0-13.175781 8.71875-24.308593 20.710937-27.953124 2.695313-.8125 5.539063-1.257813 8.5-1.257813 8.066406 0 15.367187 3.269531 20.648437 8.550781 5.292969 5.292969 8.5625 12.59375 8.5625 20.660156zm0 0" fill="#38aaff"/><path d="m246.289062 328.664062v65.125h-33.488281v-69.871093c0-8.167969-1.488281-15.992188-4.222656-23.203125 2.695313-.816406 5.539063-1.257813 8.5-1.257813 8.066406 0 15.367187 3.269531 20.648437 8.550781 5.292969 5.289063 8.5625 12.589844 8.5625 20.65625zm0 0" fill="#2081f6"/><g fill="#ffb38c"><path d="m124.914062 296.246094c-11.078124 0-20.054687-8.980469-20.054687-20.054688v-55.8125h40.109375v55.8125c0 11.074219-8.976562 20.054688-20.054688 20.054688zm0 0"/><path d="m246.859375 131.257812c0 17.5-14.1875 31.6875-31.6875 31.6875s-31.6875-14.1875-31.6875-31.6875 14.1875-31.6875 31.6875-31.6875 31.6875 14.1875 31.6875 31.6875zm0 0"/><path d="m67.101562 131.257812c0 17.5-14.1875 31.6875-31.6875 31.6875s-31.6875-14.1875-31.6875-31.6875 14.1875-31.6875 31.6875-31.6875 31.6875 14.1875 31.6875 31.6875zm0 0"/></g><path d="m206.019531 149.925781c0 46.777344-37.921875 84.699219-84.703125 84.699219s-84.703125-37.921875-84.703125-84.699219v-66.085937h169.40625zm0 0" fill="#fecaa8"/><path d="m162.644531 165.496094c0 5.9375-4.8125 10.746094-10.746093 10.746094-5.9375 0-10.746094-4.808594-10.746094-10.746094 0-5.933594 4.808594-10.742188 10.746094-10.742188 5.933593 0 10.746093 4.808594 10.746093 10.742188zm0 0" fill="#fe825e"/><path d="m72.007812 165.496094c0 5.9375-4.8125 10.746094-10.746093 10.746094-5.933594 0-10.746094-4.808594-10.746094-10.746094 0-5.933594 4.8125-10.742188 10.746094-10.742188 5.933593 0 10.746093 4.808594 10.746093 10.742188zm0 0" fill="#fe825e"/><path d="m224.933594 57.144531v36.941407c0 6.367187-5.148438 11.515624-11.515625 11.515624h-189.304688c-6.367187 0-11.53125-5.148437-11.53125-11.515624v-36.941407c.003907-31.566406 25.582031-57.144531 57.144531-57.144531h98.074219c31.554688 0 57.132813 25.578125 57.132813 57.144531zm0 0" fill="#4c78a0"/><path d="m65.554688 65.023438v40.582031h-15.453126v-40.582031c0-4.273438 3.464844-7.722657 7.726563-7.722657 4.277344 0 7.726563 3.449219 7.726563 7.722657zm0 0" fill="#336686"/><path d="m94.371094 85.585938v20.015624h-15.453125v-20.015624c0-4.265626 3.460937-7.726563 7.726562-7.726563s7.726563 3.460937 7.726563 7.726563zm0 0" fill="#336686"/><path d="m97.78125 178.96875c-6.152344 0-11.140625-4.988281-11.140625-11.140625v-19.394531c0-6.152344 4.988281-11.136719 11.140625-11.136719s11.136719 4.984375 11.136719 11.136719v19.394531c0 6.152344-4.988281 11.140625-11.136719 11.140625zm0 0" fill="#f55"/><path d="m138.878906 141.371094c-.023437 0-.042968 0-.0625 0h-.125c-4.269531-.035156-7.699218-3.523438-7.667968-7.789063.035156-4.269531 3.535156-7.667969 7.789062-7.664062h.125c4.269531.035156 7.699219 3.519531 7.664062 7.789062-.03125 4.246094-3.484374 7.664063-7.722656 7.664063zm0 0" fill="#38aaff"/><path d="m63.691406 141.371094c-.023437 0-.042968 0-.0625 0h-.128906c-4.265625-.035156-7.699219-3.523438-7.664062-7.789063.035156-4.246093 3.488281-7.664062 7.726562-7.664062h.0625.125c4.265625.035156 7.699219 3.519531 7.664062 7.789062-.03125 4.246094-3.484374 7.664063-7.722656 7.664063zm0 0" fill="#38aaff"/><path d="m117.238281 215.535156c-4.957031 0-10.019531-.925781-15.058593-2.785156-4-1.480469-6.046876-5.925781-4.566407-9.929688 1.476563-4 5.917969-6.042968 9.925781-4.566406 5.878907 2.175782 14.734376 3.488282 23.503907-2.59375 3.507812-2.433594 8.324219-1.558594 10.753906 1.949219 2.429687 3.503906 1.558594 8.320313-1.949219 10.75-6.863281 4.761719-14.59375 7.175781-22.609375 7.175781zm0 0" fill="#fe825e"/><path d="m162.222656 355.980469c.597656-10-6.929687-19.066407-16.933594-19.550781-6.972656-.339844-13.113281 3.320312-16.351562 8.878906-3.234375-5.558594-9.378906-9.21875-16.347656-8.878906-10.007813.488281-17.53125 9.550781-16.9375 19.550781 1.070312 17.953125 18.746094 33.878906 27.894531 40.964843 3.175781 2.464844 7.609375 2.464844 10.785156 0 9.148438-7.085937 26.824219-23.011718 27.890625-40.964843zm0 0" fill="#f55"/></svg>